<svg width="222" height="222" viewBox="0 0 222 222" fill="none" xmlns="http://www.w3.org/2000/svg">
<circle cx="111" cy="111" r="106" stroke="#293855" stroke-width="10"/>
<path d="M137.191 154.024L133.639 125.585C133.135 121.557 131.178 117.852 128.134 115.166C125.09 112.48 121.17 110.998 117.111 111H104.878C100.821 111.001 96.9035 112.484 93.8621 115.17C90.8207 117.855 88.8647 121.559 88.3616 125.585L84.8041 154.024C84.6088 155.586 84.7482 157.172 85.213 158.676C85.6777 160.181 86.4572 161.569 87.4997 162.749C88.5422 163.929 89.8238 164.874 91.2594 165.521C92.695 166.167 94.2518 166.501 95.8264 166.5H126.174C127.748 166.5 129.304 166.166 130.739 165.519C132.174 164.872 133.455 163.927 134.497 162.747C135.539 161.567 136.318 160.179 136.782 158.675C137.246 157.171 137.386 155.586 137.191 154.024V154.024Z" stroke="#293855" stroke-width="11" stroke-linecap="round" stroke-linejoin="round"/>
<path d="M111 88.8C120.196 88.8 127.65 81.3455 127.65 72.15C127.65 62.9545 120.196 55.5 111 55.5C101.804 55.5 94.35 62.9545 94.35 72.15C94.35 81.3455 101.804 88.8 111 88.8Z" stroke="#293855" stroke-width="11"/>
<path d="M66.6 105.45C72.7304 105.45 77.7 100.48 77.7 94.35C77.7 88.2196 72.7304 83.25 66.6 83.25C60.4696 83.25 55.5 88.2196 55.5 94.35C55.5 100.48 60.4696 105.45 66.6 105.45Z" stroke="#293855" stroke-width="11"/>
<path d="M155.4 105.45C161.53 105.45 166.5 100.48 166.5 94.35C166.5 88.2196 161.53 83.25 155.4 83.25C149.27 83.25 144.3 88.2196 144.3 94.35C144.3 100.48 149.27 105.45 155.4 105.45Z" stroke="#293855" stroke-width="11"/>
<path d="M155.4 122.1H157.098C159.726 122.1 162.268 123.031 164.273 124.73C166.279 126.428 167.616 128.782 168.048 131.374L169.897 142.474C170.162 144.064 170.077 145.693 169.649 147.248C169.221 148.802 168.459 150.245 167.417 151.475C166.375 152.705 165.077 153.693 163.615 154.371C162.152 155.049 160.559 155.4 158.946 155.4H138.75M66.6 122.1H64.9017C62.2741 122.1 59.7316 123.031 57.7266 124.73C55.7215 126.428 54.3838 128.782 53.9516 131.374L52.1034 142.474C51.8382 144.064 51.9226 145.693 52.3508 147.248C52.779 148.802 53.5406 150.245 54.5828 151.475C55.6249 152.705 56.9226 153.693 58.3854 154.371C59.8483 155.049 61.4413 155.4 63.0536 155.4H83.25L66.6 122.1Z" stroke="#293855" stroke-width="11" stroke-linecap="round" stroke-linejoin="round"/>
</svg>
