<svg width="222" height="222" viewBox="0 0 222 222" fill="none" xmlns="http://www.w3.org/2000/svg">
<circle cx="111" cy="111" r="106" stroke="#293855" stroke-width="10"/>
<path d="M105.45 105.45H138.75C140.323 105.45 141.64 104.917 142.702 103.852C143.767 102.79 144.3 101.472 144.3 99.9C144.3 98.3275 143.767 97.0084 142.702 95.9428C141.64 94.881 140.323 94.35 138.75 94.35H105.45C103.878 94.35 102.56 94.881 101.498 95.9428C100.433 97.0084 99.9 98.3275 99.9 99.9C99.9 101.472 100.433 102.79 101.498 103.852C102.56 104.917 103.878 105.45 105.45 105.45ZM105.45 122.1H116.55C118.123 122.1 119.442 121.567 120.507 120.502C121.569 119.44 122.1 118.123 122.1 116.55C122.1 114.978 121.569 113.658 120.507 112.593C119.442 111.531 118.123 111 116.55 111H105.45C103.878 111 102.56 111.531 101.498 112.593C100.433 113.658 99.9 114.978 99.9 116.55C99.9 118.123 100.433 119.44 101.498 120.502C102.56 121.567 103.878 122.1 105.45 122.1ZM105.45 88.8H138.75C140.323 88.8 141.64 88.2691 142.702 87.2071C143.767 86.1416 144.3 84.8225 144.3 83.25C144.3 81.6775 143.767 80.3585 142.702 79.2929C141.64 78.231 140.323 77.7 138.75 77.7H105.45C103.878 77.7 102.56 78.231 101.498 79.2929C100.433 80.3585 99.9 81.6775 99.9 83.25C99.9 84.8225 100.433 86.1416 101.498 87.2071C102.56 88.2691 103.878 88.8 105.45 88.8ZM88.8 144.3C85.7475 144.3 83.1353 143.214 80.9634 141.042C78.7878 138.867 77.7 136.253 77.7 133.2V66.6C77.7 63.5475 78.7878 60.9334 80.9634 58.7578C83.1353 56.5859 85.7475 55.5 88.8 55.5H155.4C158.453 55.5 161.067 56.5859 163.242 58.7578C165.414 60.9334 166.5 63.5475 166.5 66.6V133.2C166.5 136.253 165.414 138.867 163.242 141.042C161.067 143.214 158.453 144.3 155.4 144.3H88.8ZM88.8 133.2H155.4V66.6H88.8V133.2ZM66.6 166.5C63.5475 166.5 60.9353 165.414 58.7634 163.242C56.5878 161.067 55.5 158.453 55.5 155.4V83.25C55.5 81.6775 56.0328 80.3585 57.0984 79.2929C58.1603 78.231 59.4775 77.7 61.05 77.7C62.6225 77.7 63.9416 78.231 65.0072 79.2929C66.0691 80.3585 66.6 81.6775 66.6 83.25V155.4H138.75C140.323 155.4 141.64 155.933 142.702 156.998C143.767 158.06 144.3 159.378 144.3 160.95C144.3 162.523 143.767 163.84 142.702 164.902C141.64 165.967 140.323 166.5 138.75 166.5H66.6ZM88.8 66.6V133.2V66.6Z" fill="#293855"/>
</svg>
