<svg width="222" height="222" viewBox="0 0 222 222" fill="none" xmlns="http://www.w3.org/2000/svg">
<circle cx="111" cy="111" r="106" stroke="#293855" stroke-width="10"/>
<path d="M117.481 139.094L117.48 139.092C116.631 137.907 117.477 136.253 118.935 136.253H124.669H124.671V137.003L117.481 139.094ZM117.481 139.094L127.081 152.375L127.082 152.377M117.481 139.094L127.082 152.377M127.082 152.377C127.798 153.361 129.258 153.361 129.974 152.377L129.975 152.375M127.082 152.377L129.975 152.375M129.975 152.375L144.826 131.828C144.827 131.827 144.828 131.826 144.828 131.825C145.698 130.638 144.845 128.981 143.389 128.981H137.627M129.975 152.375L137.627 128.981M137.627 128.981C137.055 128.981 136.513 129.247 136.172 129.723C136.172 129.723 136.172 129.724 136.171 129.725L128.521 140.302M137.627 128.981L128.521 140.302M128.521 140.302L126.126 136.994C126.126 136.994 126.126 136.994 126.126 136.994L128.521 140.302ZM134.644 84.9844V78.7406C134.644 77.7541 133.84 76.95 132.853 76.95H82.9031C81.9166 76.95 81.1125 77.7541 81.1125 78.7406V84.9844C81.1125 85.9709 81.9166 86.775 82.9031 86.775H132.853C133.84 86.775 134.644 85.9709 134.644 84.9844ZM82.9031 95.6813C81.9166 95.6813 81.1125 96.4853 81.1125 97.4719V103.716C81.1125 104.702 81.9166 105.506 82.9031 105.506H106.838C107.824 105.506 108.628 104.702 108.628 103.716V97.4719C108.628 96.4853 107.824 95.6813 106.838 95.6813H82.9031ZM131.812 110.77C115.88 110.77 102.966 123.685 102.966 139.617C102.966 155.55 115.88 168.464 131.812 168.464C147.745 168.464 160.659 155.55 160.659 139.617C160.659 123.685 147.745 110.77 131.812 110.77ZM145.266 153.07C141.673 156.663 136.895 158.639 131.812 158.639C126.73 158.639 121.952 156.663 118.359 153.07C114.767 149.478 112.791 144.7 112.791 139.617C112.791 134.535 114.767 129.756 118.359 126.164C121.952 122.572 126.73 120.595 131.812 120.595C136.895 120.595 141.673 122.572 145.266 126.164C148.858 129.756 150.834 134.535 150.834 139.617C150.834 144.7 148.858 149.478 145.266 153.07ZM101.634 154.477H72.2063V64.4016H143.55V108.398C143.55 109.385 144.354 110.189 145.341 110.189H152.625C153.612 110.189 154.416 109.385 154.416 108.398V58.4484C154.416 55.7318 152.22 53.5359 149.503 53.5359H66.2531C63.5365 53.5359 61.3406 55.7318 61.3406 58.4484V160.43C61.3406 163.146 63.5365 165.342 66.2531 165.342H101.634C102.621 165.342 103.425 164.538 103.425 163.552V156.267C103.425 155.281 102.621 154.477 101.634 154.477Z" fill="#293855" stroke="#293855" stroke-width="1.5"/>
</svg>
