<svg width="222" height="222" viewBox="0 0 222 222" fill="none" xmlns="http://www.w3.org/2000/svg">
<circle cx="111" cy="111" r="106" stroke="#293855" stroke-width="10"/>
<path d="M152.625 141.525H138.75M83.2499 152.07V69.93C83.2499 69.0468 83.6007 68.1998 84.2252 67.5753C84.8497 66.9508 85.6967 66.6 86.5799 66.6H135.42C135.857 66.6 136.29 66.6861 136.694 66.8535C137.098 67.0208 137.465 67.2661 137.775 67.5753C138.084 67.8846 138.329 68.2517 138.496 68.6557C138.664 69.0597 138.75 69.4927 138.75 69.93V152.07C138.75 152.507 138.664 152.94 138.496 153.344C138.329 153.748 138.084 154.115 137.775 154.425C137.465 154.734 137.098 154.979 136.694 155.147C136.29 155.314 135.857 155.4 135.42 155.4H86.5799C85.6967 155.4 84.8497 155.049 84.2252 154.425C83.6007 153.8 83.2499 152.953 83.2499 152.07V152.07ZM122.1 155.4V169.275V155.4ZM99.8999 155.4V169.275V155.4ZM122.1 66.6V52.725V66.6ZM99.8999 66.6V52.725V66.6ZM83.2499 111H69.3749H83.2499ZM152.625 111H138.75H152.625ZM83.2499 80.475H69.3749H83.2499ZM152.625 80.475H138.75H152.625ZM83.2499 141.525H69.3749H83.2499Z" stroke="#293855" stroke-width="9" stroke-linecap="round" stroke-linejoin="round"/>
</svg>
