<svg width="50" height="50" viewBox="0 0 50 50" fill="none" xmlns="http://www.w3.org/2000/svg">
<path d="M45.8334 17.9333V34.8958C45.8335 36.6252 45.1718 38.2891 43.984 39.5462C42.7963 40.8033 41.1725 41.5583 39.4459 41.6562L39.0625 41.6666H10.9375C9.20807 41.6667 7.54413 41.005 6.28704 39.8173C5.02995 38.6295 4.27502 37.0058 4.1771 35.2791L4.16669 34.8958V17.9333L24.275 28.4666C24.4987 28.5838 24.7475 28.645 25 28.645C25.2526 28.645 25.5013 28.5838 25.725 28.4666L45.8334 17.9333ZM10.9375 8.33325H39.0625C40.7408 8.33305 42.3594 8.95616 43.6043 10.0817C44.8492 11.2073 45.6317 12.7551 45.8 14.4249L25 25.3208L4.20002 14.4249C4.36153 12.8214 5.08971 11.3281 6.25367 10.2134C7.41762 9.09869 8.94102 8.43572 10.55 8.34367L10.9375 8.33325H39.0625H10.9375Z" fill="#A2C5FD"/>
</svg>
