<svg width="50" height="50" viewBox="0 0 50 50" fill="none" xmlns="http://www.w3.org/2000/svg">
<path d="M25 43.75C22.3686 41.5055 19.9296 39.0448 17.7084 36.3937C14.375 32.4125 10.4167 26.4833 10.4167 20.8333C10.4152 17.9478 11.2698 15.1267 12.8723 12.7271C14.4748 10.3275 16.7531 8.45719 19.4189 7.3529C22.0847 6.24861 25.0182 5.95997 27.8482 6.52351C30.6781 7.08706 33.2773 8.47745 35.3167 10.5187C36.6745 11.8705 37.7507 13.4782 38.4831 15.2487C39.2155 17.0192 39.5895 18.9173 39.5834 20.8333C39.5834 26.4833 35.625 32.4125 32.2917 36.3937C30.0704 39.0448 27.6314 41.5055 25 43.75ZM25 14.5833C23.3424 14.5833 21.7527 15.2418 20.5806 16.4139C19.4085 17.586 18.75 19.1757 18.75 20.8333C18.75 22.4909 19.4085 24.0806 20.5806 25.2527C21.7527 26.4248 23.3424 27.0833 25 27.0833C26.6576 27.0833 28.2473 26.4248 29.4194 25.2527C30.5915 24.0806 31.25 22.4909 31.25 20.8333C31.25 19.1757 30.5915 17.586 29.4194 16.4139C28.2473 15.2418 26.6576 14.5833 25 14.5833Z" fill="#A2C5FD"/>
</svg>
