<svg width="50" height="50" viewBox="0 0 50 50" fill="none" xmlns="http://www.w3.org/2000/svg">
<path d="M42.6812 35.7083L34.2125 28.0083C33.8122 27.6444 33.2861 27.4504 32.7454 27.4671C32.2047 27.4838 31.6916 27.71 31.3146 28.0978L26.3291 33.2249C25.1291 32.9958 22.7166 32.2437 20.2333 29.7666C17.75 27.2812 16.9979 24.8624 16.775 23.6708L21.8979 18.6833C22.2863 18.3064 22.5128 17.7933 22.5295 17.2524C22.5462 16.7116 22.3518 16.1854 21.9875 15.7853L14.2896 7.31868C13.9251 6.91734 13.4185 6.6739 12.8774 6.64005C12.3363 6.60621 11.8033 6.78463 11.3916 7.13743L6.87081 11.0145C6.51063 11.376 6.29564 11.8571 6.26664 12.3666C6.23539 12.8874 5.63956 25.2249 15.2062 34.7958C23.5521 43.1395 34.0062 43.7499 36.8854 43.7499C37.3062 43.7499 37.5646 43.7374 37.6333 43.7333C38.1427 43.7047 38.6236 43.4888 38.9833 43.127L42.8583 38.6041C43.2125 38.1937 43.3922 37.6612 43.3592 37.1201C43.3261 36.5791 43.0828 36.0724 42.6812 35.7083Z" fill="#A2C5FD"/>
</svg>
