<svg width="70" height="49" viewBox="0 0 70 49" fill="none" xmlns="http://www.w3.org/2000/svg">
<g clip-path="url(#clip0_60_50)">
<path d="M68.5371 7.65151C67.7321 4.63959 65.3605 2.26783 62.3485 1.46289C56.8897 0 35 0 35 0C35 0 13.1104 0 7.65144 1.46289C4.63973 2.26783 2.26767 4.63959 1.46273 7.65151C0 13.1104 0 24.5 0 24.5C0 24.5 0 35.8895 1.46273 41.3488C2.26767 44.3604 4.63973 46.7321 7.65144 47.5374C13.1104 49 35 49 35 49C35 49 56.8897 49 62.3485 47.5374C65.3605 46.7321 67.7321 44.3604 68.5371 41.3488C70 35.8895 70 24.5 70 24.5C70 24.5 70 13.1104 68.5371 7.65151Z" fill="#EDF4FF"/>
<path d="M27.8409 34.8408L46.1364 24.5004L27.8409 14.1591V34.8408Z" fill="#293855"/>
</g>
<defs>
<clipPath id="clip0_60_50">
<rect width="70" height="49" fill="white"/>
</clipPath>
</defs>
</svg>
