<svg width="52" height="36" viewBox="0 0 52 36" fill="none" xmlns="http://www.w3.org/2000/svg">
<g clip-path="url(#clip0_30_58)">
<path d="M50.3538 5.62152C49.7624 3.40868 48.02 1.66616 45.8071 1.07478C41.7965 0 25.7143 0 25.7143 0C25.7143 0 9.63213 0 5.62146 1.07478C3.40878 1.66616 1.66604 3.40868 1.07466 5.62152C0 9.63212 0 18 0 18C0 18 0 26.3678 1.07466 30.3787C1.66604 32.5913 3.40878 34.3338 5.62146 34.9255C9.63213 36 25.7143 36 25.7143 36C25.7143 36 41.7965 36 45.8071 34.9255C48.02 34.3338 49.7624 32.5913 50.3538 30.3787C51.4286 26.3678 51.4286 18 51.4286 18C51.4286 18 51.4286 9.63212 50.3538 5.62152Z" fill="#293855"/>
<path d="M20.4545 25.5974L33.8961 18.0004L20.4545 10.4027V25.5974Z" fill="#EDF4FF"/>
</g>
<defs>
<clipPath id="clip0_30_58">
<rect width="51.4286" height="36" fill="white"/>
</clipPath>
</defs>
</svg>
